<?xml version="1.0" encoding="UTF-8"?>
<svg width="32px" height="32px" viewBox="0 0 32 32" version="1.1" xmlns="http://www.w3.org/2000/svg" xmlns:xlink="http://www.w3.org/1999/xlink">
    <!-- Generator: Sketch 45 (43475) - http://www.bohemiancoding.com/sketch -->
    <title>Behance</title>
    <desc>Created with Sketch.</desc>
    <defs></defs>
    <g id="Page-1" stroke="none" stroke-width="1" fill="none" fill-rule="evenodd">
        <g id="Behance" fill="#000000" fill-rule="nonzero">
            <path d="M16.0124675,0.054025974 C7.29766234,0.054025974 0.232727273,7.11896104 0.232727273,15.8337662 C0.232727273,24.5444156 7.29766234,31.6093506 16.0124675,31.6093506 C24.7231169,31.6093506 31.7880519,24.5444156 31.7880519,15.8337662 C31.7880519,7.11896104 24.7231169,0.054025974 16.0124675,0.054025974 L16.0124675,0.054025974 Z M18.2857143,11.6363636 L22.4415584,11.6363636 L22.4415584,12.8831169 L18.2857143,12.8831169 L18.2857143,11.6363636 Z M15.921039,19.0628571 C15.7464935,19.3537662 15.5220779,19.598961 15.2561039,19.7942857 C14.9568831,20.0228571 14.6036364,20.1641558 14.1922078,20.2514286 C13.7849351,20.3345455 13.3444156,20.3636364 12.8664935,20.3636364 L8.72727273,20.3636364 L8.72727273,11.2207792 L13.1698701,11.2207792 C14.321039,11.2207792 15.1314286,11.5075325 15.6093506,12.1516883 C15.8961039,12.5464935 16.0415584,12.9911688 16.0415584,13.5397403 C16.0415584,14.1049351 15.8961039,14.5454545 15.6051948,14.8903896 C15.4431169,15.0857143 15.2062338,15.2561039 14.8903896,15.414026 C15.3683117,15.5885714 15.7298701,15.8545455 15.9750649,16.2285714 C16.2202597,16.6025974 16.3407792,17.0514286 16.3407792,17.5833766 C16.3407792,18.1361039 16.2036364,18.6306494 15.921039,19.0628571 L15.921039,19.0628571 Z M23.8462338,17.4545455 L18.7802597,17.4545455 C18.8093506,18.2857143 19.0503896,18.6181818 19.5075325,18.8924675 C19.785974,19.067013 20.1184416,19.145974 20.5090909,19.145974 C20.9246753,19.145974 21.2612987,19.012987 21.518961,18.8051948 C21.6602597,18.692987 21.7890909,18.7012987 21.892987,18.2857143 L23.7506494,18.2857143 C23.7007792,18.7012987 23.4763636,19.1542857 23.0774026,19.574026 C22.454026,20.238961 21.5812987,20.6212987 20.4592208,20.6212987 C19.5324675,20.6212987 18.7179221,20.3387013 18.0114286,19.7776623 C17.3007792,19.2124675 16.9475325,18.2981818 16.9475325,17.0264935 C16.9475325,15.8379221 17.2675325,14.9277922 17.9075325,14.2919481 C18.5475325,13.6602597 19.3745455,13.3402597 20.3927273,13.3402597 C20.9994805,13.3402597 21.5438961,13.4483117 22.0301299,13.6602597 C22.5163636,13.8763636 22.9153247,14.212987 23.2311688,14.6784416 C23.5179221,15.0857143 23.7007792,15.5553247 23.7880519,16.0914286 C23.8379221,16.4072727 23.8545455,17.038961 23.8462338,17.4545455 L23.8462338,17.4545455 Z M20.3927273,14.8031169 C20.8249351,14.8031169 21.1823377,14.9028571 21.4732468,15.1480519 C21.7641558,15.3974026 21.9262338,15.7922078 21.9594805,16.2077922 L18.8218182,16.2077922 C18.8883117,15.7922078 19.0503896,15.438961 19.3080519,15.1812987 C19.5657143,14.9194805 19.9272727,14.8031169 20.3927273,14.8031169 Z M14.3584416,17.4545455 C14.3584416,18.0238961 14.1506494,18.372987 13.7392208,18.5724675 C13.5106494,18.6846753 13.1948052,18.7012987 12.7833766,18.7012987 L10.3896104,18.7012987 L10.3896104,16.2077922 L12.8166234,16.2077922 C13.2197403,16.2077922 13.5355844,16.3116883 13.76,16.4114286 C14.158961,16.5942857 14.3584416,16.9683117 14.3584416,17.4545455 Z M12.7875325,14.961039 L10.3896104,14.961039 L10.3896104,12.8831169 L12.5506494,12.8831169 C12.9994805,12.8831169 13.3693506,12.8498701 13.6602597,12.9454545 C13.9968831,13.0825974 14.1672727,13.3277922 14.1672727,13.76 C14.1672727,14.1506494 14.0384416,14.4976623 13.7849351,14.6514286 C13.5272727,14.8051948 13.1948052,14.961039 12.7875325,14.961039 Z"></path>
        </g>
    </g>
</svg>