<?xml version="1.0" encoding="UTF-8"?>
<svg width="77px" height="77px" viewBox="0 0 77 77" version="1.1" xmlns="http://www.w3.org/2000/svg" xmlns:xlink="http://www.w3.org/1999/xlink">
    <!-- Generator: Sketch 42 (36781) - http://www.bohemiancoding.com/sketch -->
    <title>Behance</title>
    <desc>Created with Sketch.</desc>
    <defs></defs>
    <g id="Page-1" stroke="none" stroke-width="1" fill="none" fill-rule="evenodd">
        <path d="M38.53,0.13 C17.56,0.13 0.56,17.13 0.56,38.1 C0.56,59.06 17.56,76.06 38.53,76.06 C59.49,76.06 76.49,59.06 76.49,38.1 C76.49,17.13 59.49,0.13 38.53,0.13 L38.53,0.13 Z M44,28 L54,28 L54,31 L44,31 L44,28 Z M38.31,45.87 C37.89,46.57 37.35,47.16 36.71,47.63 C35.99,48.18 35.14,48.52 34.15,48.73 C33.17,48.93 32.11,49 30.96,49 L21,49 L21,27 L31.69,27 C34.46,27 36.41,27.69 37.56,29.24 C38.25,30.19 38.6,31.26 38.6,32.58 C38.6,33.94 38.25,35 37.55,35.83 C37.16,36.3 36.59,36.71 35.83,37.09 C36.98,37.51 37.85,38.15 38.44,39.05 C39.03,39.95 39.32,41.03 39.32,42.31 C39.32,43.64 38.99,44.83 38.31,45.87 L38.31,45.87 Z M57.38,42 L45.19,42 C45.26,44 45.84,44.8 46.94,45.46 C47.61,45.88 48.41,46.07 49.35,46.07 C50.35,46.07 51.16,45.75 51.78,45.25 C52.12,44.98 52.43,45 52.68,44 L57.15,44 C57.03,45 56.49,46.09 55.53,47.1 C54.03,48.7 51.93,49.62 49.23,49.62 C47,49.62 45.04,48.94 43.34,47.59 C41.63,46.23 40.78,44.03 40.78,40.97 C40.78,38.11 41.55,35.92 43.09,34.39 C44.63,32.87 46.62,32.1 49.07,32.1 C50.53,32.1 51.84,32.36 53.01,32.87 C54.18,33.39 55.14,34.2 55.9,35.32 C56.59,36.3 57.03,37.43 57.24,38.72 C57.36,39.48 57.4,41 57.38,42 L57.38,42 Z M49.07,35.62 C50.11,35.62 50.97,35.86 51.67,36.45 C52.37,37.05 52.76,38 52.84,39 L45.29,39 C45.45,38 45.84,37.15 46.46,36.53 C47.08,35.9 47.95,35.62 49.07,35.62 Z M34.55,42 C34.55,43.37 34.05,44.21 33.06,44.69 C32.51,44.96 31.75,45 30.76,45 L25,45 L25,39 L30.84,39 C31.81,39 32.57,39.25 33.11,39.49 C34.07,39.93 34.55,40.83 34.55,42 Z M30.77,36 L25,36 L25,31 L30.2,31 C31.28,31 32.17,30.92 32.87,31.15 C33.68,31.48 34.09,32.07 34.09,33.11 C34.09,34.05 33.78,34.885 33.17,35.255 C32.55,35.625 31.75,36 30.77,36 Z" id="Behance" fill="#000000"></path>
    </g>
</svg>