<?xml version="1.0" encoding="UTF-8"?>
<svg width="77px" height="77px" viewBox="0 0 77 77" version="1.1" xmlns="http://www.w3.org/2000/svg" xmlns:xlink="http://www.w3.org/1999/xlink">
    <!-- Generator: Sketch 42 (36781) - http://www.bohemiancoding.com/sketch -->
    <title>Dribbble</title>
    <desc>Created with Sketch.</desc>
    <defs></defs>
    <g id="Page-1" stroke="none" stroke-width="1" fill="none" fill-rule="evenodd">
        <g id="Dribbble" fill="#000000">
            <path d="M38.53,0.13 C17.56,0.13 0.56,17.13 0.56,38.1 C0.56,59.06 17.56,76.06 38.53,76.06 C59.49,76.06 76.49,59.06 76.49,38.1 C76.49,17.13 59.49,0.13 38.53,0.13 L38.53,0.13 Z M56.49,41.69 C56.25,42.87 55.89,44.03 55.42,45.13 C54.96,46.22 54.39,47.27 53.73,48.25 C53.08,49.22 52.32,50.13 51.49,50.96 C50.66,51.79 49.75,52.54 48.78,53.2 C47.8,53.86 46.75,54.43 45.67,54.89 C44.56,55.36 43.4,55.72 42.22,55.96 C41.01,56.21 39.77,56.33 38.53,56.33 C37.28,56.33 36.04,56.21 34.83,55.96 C33.66,55.72 32.5,55.36 31.39,54.89 C30.3,54.43 29.25,53.86 28.27,53.2 C27.3,52.54 26.39,51.79 25.56,50.96 C24.73,50.13 23.98,49.22 23.32,48.25 C22.66,47.27 22.09,46.22 21.63,45.13 C21.16,44.03 20.8,42.87 20.56,41.69 C20.31,40.48 20.19,39.24 20.19,37.99 C20.19,36.75 20.31,35.51 20.56,34.3 C20.8,33.13 21.16,31.96 21.63,30.86 C22.09,29.77 22.66,28.72 23.32,27.74 C23.98,26.77 24.73,25.86 25.56,25.03 C26.39,24.2 27.3,23.45 28.27,22.79 C29.25,22.13 30.3,21.56 31.39,21.1 C32.5,20.63 33.66,20.27 34.83,20.03 C36.04,19.78 37.28,19.66 38.53,19.66 C39.77,19.66 41.01,19.78 42.22,20.03 C43.4,20.27 44.56,20.63 45.67,21.1 C46.75,21.56 47.8,22.13 48.78,22.79 C49.75,23.45 50.66,24.2 51.49,25.03 C52.32,25.86 53.08,26.77 53.73,27.74 C54.39,28.72 54.96,29.77 55.42,30.86 C55.89,31.96 56.25,33.13 56.49,34.3 C56.74,35.51 56.86,36.75 56.86,37.99 C56.86,39.24 56.74,40.48 56.49,41.69 L56.49,41.69 Z" id="Dribbble-Circle"></path>
            <path d="M23.2,34.77 C24.22,29.92 27.48,25.89 31.85,23.83 C32.05,24.11 34.95,28.04 37.66,32.86 C30.14,34.85 23.61,34.77 23.2,34.77 Z M26.87,48.45 C24.38,45.67 22.87,42.02 22.87,37.99 C22.87,37.83 22.87,37.66 22.88,37.5 C23.16,37.51 30.89,37.68 38.96,35.27 C39.41,36.15 39.83,37.04 40.23,37.93 C40.02,37.99 39.82,38.05 39.61,38.12 C31.16,40.85 26.87,48.45 26.87,48.45 Z M41.3,40.52 C43.5,46.25 44.41,51.04 44.64,52.41 C42.76,53.21 40.7,53.66 38.53,53.66 C34.9,53.66 31.56,52.42 28.9,50.34 C28.9,50.34 31.9,43.79 41.19,40.56 C41.23,40.54 41.26,40.54 41.3,40.52 Z M40.69,31.91 C38.01,26.99 35.07,23.09 34.84,22.78 C36.02,22.49 37.26,22.33 38.53,22.33 C42.49,22.33 46.11,23.81 48.87,26.24 C48.83,26.3 46.6,29.7 40.69,31.91 Z M53.99,40.48 C53.29,44.85 50.79,48.61 47.28,50.98 C47.12,50.04 46.28,45.44 44.23,39.8 C49.29,38.99 53.67,40.38 53.99,40.48 Z M50.62,28.05 C52.82,30.72 54.15,34.12 54.18,37.84 C53.96,37.79 48.66,36.65 43.28,37.32 C43.16,37.06 43.05,36.79 42.94,36.52 C42.61,35.75 42.26,34.99 41.9,34.25 C48.08,31.72 50.59,28.09 50.62,28.05 Z"></path>
        </g>
    </g>
</svg>