<?xml version="1.0" encoding="UTF-8"?>
<svg width="32px" height="32px" viewBox="0 0 32 32" version="1.1" xmlns="http://www.w3.org/2000/svg" xmlns:xlink="http://www.w3.org/1999/xlink">
    <!-- Generator: Sketch 45 (43475) - http://www.bohemiancoding.com/sketch -->
    <title>Dribbble</title>
    <desc>Created with Sketch.</desc>
    <defs></defs>
    <g id="Page-1" stroke="none" stroke-width="1" fill="none" fill-rule="evenodd">
        <g id="Dribbble" fill-rule="nonzero" fill="#000000">
            <path d="M16.0124675,0.054025974 C7.29766234,0.054025974 0.232727273,7.11896104 0.232727273,15.8337662 C0.232727273,24.5444156 7.29766234,31.6093506 16.0124675,31.6093506 C24.7231169,31.6093506 31.7880519,24.5444156 31.7880519,15.8337662 C31.7880519,7.11896104 24.7231169,0.054025974 16.0124675,0.054025974 L16.0124675,0.054025974 Z M23.4763636,17.3257143 C23.3766234,17.8161039 23.227013,18.2981818 23.0316883,18.7553247 C22.8405195,19.2083117 22.6036364,19.6446753 22.3293506,20.0519481 C22.0592208,20.4550649 21.7433766,20.8332468 21.3984416,21.1781818 C21.0535065,21.5231169 20.6753247,21.8348052 20.2722078,22.1090909 C19.8649351,22.3833766 19.4285714,22.6202597 18.9797403,22.8114286 C18.5184416,23.0067532 18.0363636,23.1563636 17.545974,23.2561039 C17.0431169,23.36 16.5277922,23.4098701 16.0124675,23.4098701 C15.492987,23.4098701 14.9776623,23.36 14.4748052,23.2561039 C13.9885714,23.1563636 13.5064935,23.0067532 13.0451948,22.8114286 C12.5922078,22.6202597 12.1558442,22.3833766 11.7485714,22.1090909 C11.3454545,21.8348052 10.9672727,21.5231169 10.6223377,21.1781818 C10.2774026,20.8332468 9.96571429,20.4550649 9.69142857,20.0519481 C9.41714286,19.6446753 9.18025974,19.2083117 8.98909091,18.7553247 C8.79376623,18.2981818 8.64415584,17.8161039 8.54441558,17.3257143 C8.44051948,16.8228571 8.39064935,16.3075325 8.39064935,15.7880519 C8.39064935,15.2727273 8.44051948,14.7574026 8.54441558,14.2545455 C8.64415584,13.7683117 8.79376623,13.2820779 8.98909091,12.8249351 C9.18025974,12.3719481 9.41714286,11.9355844 9.69142857,11.5283117 C9.96571429,11.1251948 10.2774026,10.747013 10.6223377,10.4020779 C10.9672727,10.0571429 11.3454545,9.74545455 11.7485714,9.47116883 C12.1558442,9.19688312 12.5922078,8.96 13.0451948,8.76883117 C13.5064935,8.57350649 13.9885714,8.4238961 14.4748052,8.32415584 C14.9776623,8.22025974 15.492987,8.17038961 16.0124675,8.17038961 C16.5277922,8.17038961 17.0431169,8.22025974 17.545974,8.32415584 C18.0363636,8.4238961 18.5184416,8.57350649 18.9797403,8.76883117 C19.4285714,8.96 19.8649351,9.19688312 20.2722078,9.47116883 C20.6753247,9.74545455 21.0535065,10.0571429 21.3984416,10.4020779 C21.7433766,10.747013 22.0592208,11.1251948 22.3293506,11.5283117 C22.6036364,11.9355844 22.8405195,12.3719481 23.0316883,12.8249351 C23.227013,13.2820779 23.3766234,13.7683117 23.4763636,14.2545455 C23.5802597,14.7574026 23.6301299,15.2727273 23.6301299,15.7880519 C23.6301299,16.3075325 23.5802597,16.8228571 23.4763636,17.3257143 L23.4763636,17.3257143 Z" id="Dribbble-Circle"></path>
            <path d="M9.64155844,14.4498701 C10.0654545,12.4342857 11.4202597,10.7594805 13.2363636,9.90337662 C13.3194805,10.0197403 14.5246753,11.652987 15.6509091,13.6561039 C12.5257143,14.4831169 9.81194805,14.4498701 9.64155844,14.4498701 Z M11.1667532,20.1350649 C10.1319481,18.9797403 9.50441558,17.4628571 9.50441558,15.7880519 C9.50441558,15.7215584 9.50441558,15.6509091 9.50857143,15.5844156 C9.62493506,15.5885714 12.8374026,15.6592208 16.1911688,14.6576623 C16.3781818,15.0233766 16.5527273,15.3932468 16.718961,15.7631169 C16.6316883,15.7880519 16.5485714,15.812987 16.4612987,15.8420779 C12.9496104,16.9766234 11.1667532,20.1350649 11.1667532,20.1350649 Z M17.1636364,16.8394805 C18.0779221,19.2207792 18.4561039,21.2114286 18.5516883,21.7807792 C17.7703896,22.1132468 16.9142857,22.3002597 16.0124675,22.3002597 C14.5038961,22.3002597 13.1158442,21.7849351 12.0103896,20.9205195 C12.0103896,20.9205195 13.2571429,18.1984416 17.1179221,16.8561039 C17.1345455,16.8477922 17.147013,16.8477922 17.1636364,16.8394805 Z M16.9101299,13.2612987 C15.7963636,11.2166234 14.5745455,9.59584416 14.478961,9.46701299 C14.9693506,9.34649351 15.4846753,9.28 16.0124675,9.28 C17.6581818,9.28 19.1625974,9.89506494 20.3096104,10.9049351 C20.292987,10.9298701 19.3662338,12.3428571 16.9101299,13.2612987 Z M22.4374026,16.8228571 C22.1464935,18.638961 21.1075325,20.2015584 19.6488312,21.1864935 C19.5823377,20.7958442 19.2332468,18.8841558 18.3812987,16.5402597 C20.4841558,16.2036364 22.3044156,16.7812987 22.4374026,16.8228571 Z M21.0368831,11.6571429 C21.9511688,12.7667532 22.5038961,14.1797403 22.5163636,15.7257143 C22.4249351,15.7049351 20.2223377,15.2311688 17.9864935,15.5096104 C17.9366234,15.4015584 17.8909091,15.2893506 17.8451948,15.1771429 C17.7080519,14.8571429 17.5625974,14.5412987 17.412987,14.2337662 C19.9812987,13.1823377 21.0244156,11.6737662 21.0368831,11.6571429 Z" id="Shape"></path>
        </g>
    </g>
</svg>