<?xml version="1.0" encoding="UTF-8"?>
<svg width="77px" height="77px" viewBox="0 0 77 77" version="1.1" xmlns="http://www.w3.org/2000/svg" xmlns:xlink="http://www.w3.org/1999/xlink">
    <!-- Generator: Sketch 42 (36781) - http://www.bohemiancoding.com/sketch -->
    <title>Facebook</title>
    <desc>Created with Sketch.</desc>
    <defs></defs>
    <g id="Page-1" stroke="none" stroke-width="1" fill="none" fill-rule="evenodd">
        <path d="M38.53,0.669 C17.56,0.669 0.56,17.669 0.56,38.639 C0.56,59.599 17.56,76.599 38.53,76.599 C59.49,76.599 76.49,59.599 76.49,38.639 C76.49,17.669 59.49,0.669 38.53,0.669 L38.53,0.669 Z M57,54.689 C57,55.809 56.45,57 55.34,57 L46,57 L46,43 L50.75,43 L51.47,37 L46,37 L46,33.419 C46,31.819 46.43,31 48.73,31 L52,31 L52,25.769 C51,25.699 49.45,25.549 47.42,25.549 C43.2,25.549 40,28.129 40,32.869 L40,37 L35,37 L35,43 L40,43 L40,57 L22.68,57 C21.56,57 21,55.809 21,54.689 L21,22.029 C21,20.909 21.56,20 22.68,20 L55.34,20 C56.45,20 57,20.909 57,22.029 L57,54.689 L57,54.689 Z" id="Facebook" fill="#000000"></path>
    </g>
</svg>