<?xml version="1.0" encoding="UTF-8"?>
<svg width="32px" height="32px" viewBox="0 0 32 32" version="1.1" xmlns="http://www.w3.org/2000/svg" xmlns:xlink="http://www.w3.org/1999/xlink">
    <!-- Generator: Sketch 45 (43475) - http://www.bohemiancoding.com/sketch -->
    <title>Facebook</title>
    <desc>Created with Sketch.</desc>
    <defs></defs>
    <g id="Page-1" stroke="none" stroke-width="1" fill="none" fill-rule="evenodd">
        <g id="Facebook" fill="#000000" fill-rule="nonzero">
            <path d="M16.0124675,0.278025974 C7.29766234,0.278025974 0.232727273,7.34296104 0.232727273,16.0577662 C0.232727273,24.7684156 7.29766234,31.8333506 16.0124675,31.8333506 C24.7231169,31.8333506 31.7880519,24.7684156 31.7880519,16.0577662 C31.7880519,7.34296104 24.7231169,0.278025974 16.0124675,0.278025974 L16.0124675,0.278025974 Z M23.6883117,22.7278961 C23.6883117,23.1933506 23.4597403,23.6883117 22.9984416,23.6883117 L19.1168831,23.6883117 L19.1168831,17.8701299 L21.0909091,17.8701299 L21.3901299,15.3766234 L19.1168831,15.3766234 L19.1168831,13.8884156 C19.1168831,13.2234805 19.2955844,12.8831169 20.2514286,12.8831169 L21.6103896,12.8831169 L21.6103896,10.7091948 C21.1948052,10.6801039 20.5506494,10.6177662 19.707013,10.6177662 C17.9532468,10.6177662 16.6233766,11.689974 16.6233766,13.6598442 L16.6233766,15.3766234 L14.5454545,15.3766234 L14.5454545,17.8701299 L16.6233766,17.8701299 L16.6233766,23.6883117 L9.42545455,23.6883117 C8.96,23.6883117 8.72727273,23.1933506 8.72727273,22.7278961 L8.72727273,9.15490909 C8.72727273,8.68945455 8.96,8.31168831 9.42545455,8.31168831 L22.9984416,8.31168831 C23.4597403,8.31168831 23.6883117,8.68945455 23.6883117,9.15490909 L23.6883117,22.7278961 L23.6883117,22.7278961 Z"></path>
        </g>
    </g>
</svg>