<?xml version="1.0" encoding="UTF-8"?>
<svg width="32px" height="32px" viewBox="0 0 32 32" version="1.1" xmlns="http://www.w3.org/2000/svg" xmlns:xlink="http://www.w3.org/1999/xlink">
    <!-- Generator: Sketch 45 (43475) - http://www.bohemiancoding.com/sketch -->
    <title>Google+</title>
    <desc>Created with Sketch.</desc>
    <defs></defs>
    <g id="Page-1" stroke="none" stroke-width="1" fill="none" fill-rule="evenodd">
        <g id="Google+" fill="#000000" fill-rule="nonzero">
            <path d="M15.8836364,0.319584416 C7.16883117,0.319584416 0.103896104,7.38451948 0.103896104,16.0993247 C0.103896104,24.809974 7.16883117,31.8749091 15.8836364,31.8749091 C24.5942857,31.8749091 31.6592208,24.809974 31.6592208,16.0993247 C31.6592208,7.38451948 24.5942857,0.319584416 15.8836364,0.319584416 L15.8836364,0.319584416 Z M12.8207792,21.6349091 C9.87844156,21.6349091 7.49298701,19.182961 7.49298701,16.2364675 C7.49298701,13.289974 9.87844156,10.865039 12.8207792,10.865039 C14.2005195,10.865039 15.4597403,11.3791169 16.4031169,12.2393766 C15.2893506,13.294961 15.3267532,13.3485714 14.8862338,13.7890909 C14.3418182,13.3319481 13.7433766,13.0011429 12.8207792,13.0011429 C11.0711688,13.0011429 9.70805195,14.4216104 9.70805195,16.1712208 C9.70805195,17.9208312 11.0711688,19.4580779 12.8207792,19.4580779 C14.5454545,19.4580779 15.2477922,18.7012987 15.7007792,17.4545455 L12.8831169,17.4545455 L12.8831169,15.3766234 L17.9366234,15.3766234 C18.2898701,17.8701299 17.2176623,21.6349091 12.8207792,21.6349091 L12.8207792,21.6349091 Z M24.1038961,16.6233766 L22.4415584,16.6233766 L22.4415584,18.7012987 L21.1948052,18.7012987 L21.1948052,16.6233766 L19.1168831,16.6233766 L19.1168831,15.3766234 L21.1948052,15.3766234 L21.1948052,13.7142857 L22.4415584,13.7142857 L22.4415584,15.3766234 L24.1038961,15.3766234 L24.1038961,16.6233766 L24.1038961,16.6233766 Z"></path>
        </g>
    </g>
</svg>