<?xml version="1.0" encoding="UTF-8"?>
<svg width="77px" height="77px" viewBox="0 0 77 77" version="1.1" xmlns="http://www.w3.org/2000/svg" xmlns:xlink="http://www.w3.org/1999/xlink">
    <!-- Generator: Sketch 42 (36781) - http://www.bohemiancoding.com/sketch -->
    <title>Google+</title>
    <desc>Created with Sketch.</desc>
    <defs></defs>
    <g id="Page-1" stroke="none" stroke-width="1" fill="none" fill-rule="evenodd">
        <path d="M38.22,0.769 C17.25,0.769 0.25,17.769 0.25,38.739 C0.25,59.699 17.25,76.699 38.22,76.699 C59.18,76.699 76.18,59.699 76.18,38.739 C76.18,17.769 59.18,0.769 38.22,0.769 L38.22,0.769 Z M30.85,52.059 C23.77,52.059 18.03,46.159 18.03,39.069 C18.03,31.979 23.77,26.144 30.85,26.144 C34.17,26.144 37.2,27.381 39.47,29.451 C36.79,31.991 36.88,32.12 35.82,33.18 C34.51,32.08 33.07,31.284 30.85,31.284 C26.64,31.284 23.36,34.702 23.36,38.912 C23.36,43.122 26.64,46.821 30.85,46.821 C35,46.821 36.69,45 37.78,42 L31,42 L31,37 L43.16,37 C44.01,43 41.43,52.059 30.85,52.059 L30.85,52.059 Z M58,40 L54,40 L54,45 L51,45 L51,40 L46,40 L46,37 L51,37 L51,33 L54,33 L54,37 L58,37 L58,40 L58,40 Z" id="Google+" fill="#000000"></path>
    </g>
</svg>