<?xml version="1.0" encoding="UTF-8"?>
<svg width="32px" height="32px" viewBox="0 0 32 32" version="1.1" xmlns="http://www.w3.org/2000/svg" xmlns:xlink="http://www.w3.org/1999/xlink">
    <!-- Generator: Sketch 45 (43475) - http://www.bohemiancoding.com/sketch -->
    <title>Instagram</title>
    <desc>Created with Sketch.</desc>
    <defs></defs>
    <g id="Page-1" stroke="none" stroke-width="1" fill="none" fill-rule="evenodd">
        <g id="Instagram" fill-rule="nonzero" fill="#000000">
            <path d="M16.0124675,0.054025974 C7.29766234,0.054025974 0.232727273,7.11896104 0.232727273,15.8337662 C0.232727273,24.5444156 7.29766234,31.6093506 16.0124675,31.6093506 C24.7231169,31.6093506 31.7880519,24.5444156 31.7880519,15.8337662 C31.7880519,7.11896104 24.7231169,0.054025974 16.0124675,0.054025974 L16.0124675,0.054025974 Z M24.1038961,21.6020779 C24.1038961,22.5994805 23.2145455,23.2727273 22.2171429,23.2727273 L10.6015584,23.2727273 C9.6,23.2727273 8.72727273,22.5994805 8.72727273,21.6020779 L8.72727273,9.97818182 C8.72727273,8.98077922 9.6,8.31168831 10.6015584,8.31168831 L22.2171429,8.31168831 C23.2145455,8.31168831 24.1038961,8.98077922 24.1038961,9.97818182 L24.1038961,21.6020779 L24.1038961,21.6020779 Z" id="Instagram-Circle"></path>
            <path d="M13.4981818,15.8088312 C13.4981818,14.1922078 14.8072727,12.8831169 16.4238961,12.8831169 C18.0446753,12.8831169 19.3579221,14.1922078 19.3579221,15.8088312 C19.3579221,17.4212987 18.0446753,18.7303896 16.4238961,18.7303896 C14.8072727,18.7303896 13.4981818,17.4212987 13.4981818,15.8088312 Z M22.025974,11.9896104 C22.025974,12.2535065 21.8119481,12.4675325 21.5480519,12.4675325 L20.0103896,12.4675325 C19.7464935,12.4675325 19.5324675,12.2535065 19.5324675,11.9896104 L19.5324675,10.4519481 C19.5324675,10.1880519 19.7464935,9.97402597 20.0103896,9.97402597 L21.5480519,9.97402597 C21.8119481,9.97402597 22.025974,10.1880519 22.025974,10.4519481 L22.025974,11.9896104 Z M20.6919481,14.5454545 L22.4415584,14.5454545 L22.4415584,21.5023377 C22.4415584,21.7683117 22.3833766,22.025974 22.1215584,22.025974 L10.692987,22.025974 C10.4311688,22.025974 10.3896104,21.7683117 10.3896104,21.5023377 L10.3896104,14.5454545 L12.1225974,14.5454545 C11.8732468,14.5454545 11.7901299,15.4763636 11.7901299,15.9002597 C11.7901299,18.4477922 13.8722078,20.48 16.4238961,20.48 C18.9838961,20.48 21.0618182,18.4706494 21.0618182,15.9231169 C21.0618182,15.4992208 20.9994805,14.5454545 20.6919481,14.5454545 Z" id="Shape"></path>
        </g>
    </g>
</svg>