<?xml version="1.0" encoding="UTF-8"?>
<svg width="77px" height="77px" viewBox="0 0 77 77" version="1.1" xmlns="http://www.w3.org/2000/svg" xmlns:xlink="http://www.w3.org/1999/xlink">
    <!-- Generator: Sketch 42 (36781) - http://www.bohemiancoding.com/sketch -->
    <title>Linkedin</title>
    <desc>Created with Sketch.</desc>
    <defs></defs>
    <g id="Page-1" stroke="none" stroke-width="1" fill="none" fill-rule="evenodd">
        <path d="M38.53,0.13 C17.56,0.13 0.56,17.13 0.56,38.1 C0.56,59.06 17.56,76.06 38.53,76.06 C59.49,76.06 76.49,59.06 76.49,38.1 C76.49,17.13 59.49,0.13 38.53,0.13 L38.53,0.13 Z M22,32 L29,32 L29,55 L22,55 L22,32 Z M25.09,30 L25.04,30 C22.43,30 20.75,28.01 20.75,25.8 C20.75,23.55 22.48,21.72 25.14,21.72 C27.79,21.72 29.42,23.61 29.48,25.86 C29.48,28.07 27.79,30 25.09,30 L25.09,30 Z M58,55 L49,55 L49,43.35 C49,40.26 47.97,38.16 45.16,38.16 C43.02,38.16 41.78,39.58 41.22,40.95 C41.01,41.44 41,42.12 41,42.81 L41,55 L33.26,55 C33.26,55 33.36,34 33.26,32 L41,32 L41,35.93 C42,34.37 44.4,32.14 48.52,32.14 C53.63,32.14 58,35.41 58,42.47 L58,55 L58,55 Z" id="Linkedin" fill="#000000"></path>
    </g>
</svg>