<?xml version="1.0" encoding="UTF-8"?>
<svg width="32px" height="32px" viewBox="0 0 32 32" version="1.1" xmlns="http://www.w3.org/2000/svg" xmlns:xlink="http://www.w3.org/1999/xlink">
    <!-- Generator: Sketch 45 (43475) - http://www.bohemiancoding.com/sketch -->
    <title>Linkedin</title>
    <desc>Created with Sketch.</desc>
    <defs></defs>
    <g id="Page-1" stroke="none" stroke-width="1" fill="none" fill-rule="evenodd">
        <g id="Linkedin" fill="#000000" fill-rule="nonzero">
            <path d="M16.0124675,0.054025974 C7.29766234,0.054025974 0.232727273,7.11896104 0.232727273,15.8337662 C0.232727273,24.5444156 7.29766234,31.6093506 16.0124675,31.6093506 C24.7231169,31.6093506 31.7880519,24.5444156 31.7880519,15.8337662 C31.7880519,7.11896104 24.7231169,0.054025974 16.0124675,0.054025974 L16.0124675,0.054025974 Z M9.14285714,13.2987013 L12.0519481,13.2987013 L12.0519481,22.8571429 L9.14285714,22.8571429 L9.14285714,13.2987013 Z M10.427013,12.4675325 L10.4062338,12.4675325 C9.32155844,12.4675325 8.62337662,11.6405195 8.62337662,10.7220779 C8.62337662,9.78701299 9.34233766,9.02649351 10.4477922,9.02649351 C11.5490909,9.02649351 12.2264935,9.81194805 12.2514286,10.747013 C12.2514286,11.6654545 11.5490909,12.4675325 10.427013,12.4675325 L10.427013,12.4675325 Z M24.1038961,22.8571429 L20.3636364,22.8571429 L20.3636364,18.0155844 C20.3636364,16.7314286 19.9355844,15.8587013 18.7677922,15.8587013 C17.8784416,15.8587013 17.3631169,16.4488312 17.1303896,17.0181818 C17.0431169,17.2218182 17.038961,17.5044156 17.038961,17.7911688 L17.038961,22.8571429 L13.8223377,22.8571429 C13.8223377,22.8571429 13.8638961,14.1298701 13.8223377,13.2987013 L17.038961,13.2987013 L17.038961,14.9319481 C17.4545455,14.2836364 18.4519481,13.3568831 20.1641558,13.3568831 C22.2877922,13.3568831 24.1038961,14.7158442 24.1038961,17.6498701 L24.1038961,22.8571429 L24.1038961,22.8571429 Z"></path>
        </g>
    </g>
</svg>