<?xml version="1.0" encoding="UTF-8"?>
<svg width="45px" height="39px" viewBox="0 0 45 39" version="1.1" xmlns="http://www.w3.org/2000/svg" xmlns:xlink="http://www.w3.org/1999/xlink">
    <!-- Generator: Sketch 42 (36781) - http://www.bohemiancoding.com/sketch -->
    <title>“</title>
    <desc>Created with Sketch.</desc>
    <defs></defs>
    <g id="Page-1" stroke="none" stroke-width="1" fill="none" fill-rule="evenodd">
        <g id="HOME" transform="translate(-698.000000, -2407.000000)" fill="#000000">
            <path d="M715.115279,2445.794 L715.115279,2429.18272 L706.285861,2429.18272 C706.285861,2427.48667 706.410569,2425.7657 706.659989,2424.01976 C706.909408,2422.27382 707.383299,2420.7025 708.081675,2419.30574 C708.78005,2417.90899 709.677948,2416.78662 710.775396,2415.93859 C711.872843,2415.09057 713.269573,2414.66656 714.965628,2414.66656 L714.965628,2407.184 C712.172126,2407.184 709.727848,2407.7826 707.632721,2408.97981 C705.537594,2410.17703 703.816623,2411.77329 702.469756,2413.76865 C701.122889,2415.76401 700.125224,2418.08358 699.476733,2420.72743 C698.828241,2423.37128 698.504,2426.18968 698.504,2429.18272 L698.504,2445.794 L715.115279,2445.794 Z M742.501443,2445.794 L742.501443,2429.18272 L733.672024,2429.18272 C733.672024,2427.48667 733.796732,2425.7657 734.046152,2424.01976 C734.295572,2422.27382 734.769462,2420.7025 735.467838,2419.30574 C736.166213,2417.90899 737.064111,2416.78662 738.161559,2415.93859 C739.259006,2415.09057 740.655736,2414.66656 742.351791,2414.66656 L742.351791,2407.184 C739.558289,2407.184 737.114011,2407.7826 735.018884,2408.97981 C732.923758,2410.17703 731.202786,2411.77329 729.855919,2413.76865 C728.509052,2415.76401 727.511387,2418.08358 726.862896,2420.72743 C726.214404,2423.37128 725.890163,2426.18968 725.890163,2429.18272 L725.890163,2445.794 L742.501443,2445.794 Z" id="“"></path>
        </g>
    </g>
</svg>