<?xml version="1.0" encoding="UTF-8"?>
<svg width="53px" height="37px" viewBox="0 0 53 37" version="1.1" xmlns="http://www.w3.org/2000/svg" xmlns:xlink="http://www.w3.org/1999/xlink">
    <!-- Generator: Sketch 49.3 (51167) - http://www.bohemiancoding.com/sketch -->
    <title>quotation mark</title>
    <desc>Created with Sketch.</desc>
    <defs></defs>
    <g id="Page-1" stroke="none" stroke-width="1" fill="none" fill-rule="evenodd">
        <path d="M38.96,36.2 C31.76,36.2 28.64,32.48 28.64,27.56 L28.64,25.04 C28.64,15.68 34.4,5.84 41.72,0.2 L52.88,0.2 C47.6,5 43.76,9.8 41.84,15.8 C47,16.76 49.28,20.36 49.28,24.56 L49.28,27.56 C49.28,32.48 46.16,36.2 38.96,36.2 Z M10.76,36.2 C3.56,36.2 0.44,32.48 0.44,27.56 L0.44,25.04 C0.44,15.68 6.2,5.84 13.52,0.2 L24.68,0.2 C19.4,5 15.56,9.8 13.64,15.8 C18.8,16.76 21.08,20.36 21.08,24.56 L21.08,27.56 C21.08,32.48 17.96,36.2 10.76,36.2 Z" id="quotation-mark" fill="#000000"></path>
    </g>
</svg>