<?xml version="1.0" encoding="UTF-8"?>
<svg width="32px" height="32px" viewBox="0 0 32 32" version="1.1" xmlns="http://www.w3.org/2000/svg" xmlns:xlink="http://www.w3.org/1999/xlink">
    <!-- Generator: Sketch 45 (43475) - http://www.bohemiancoding.com/sketch -->
    <title>Twitter</title>
    <desc>Created with Sketch.</desc>
    <defs></defs>
    <g id="Page-1" stroke="none" stroke-width="1" fill="none" fill-rule="evenodd">
        <g id="Twitter" fill="#000000" fill-rule="nonzero">
            <path d="M16.0124675,0.054025974 C7.29766234,0.054025974 0.232727273,7.11896104 0.232727273,15.8337662 C0.232727273,24.5444156 7.29766234,31.6093506 16.0124675,31.6093506 C24.7231169,31.6093506 31.7880519,24.5444156 31.7880519,15.8337662 C31.7880519,7.11896104 24.7231169,0.054025974 16.0124675,0.054025974 L16.0124675,0.054025974 Z M22.0093506,12.4883117 C22.0135065,12.6296104 22.0176623,12.7709091 22.0176623,12.9122078 C22.0176623,17.2384416 18.8051948,22.2296104 12.932987,22.2296104 C11.1293506,22.2296104 9.45038961,21.6851948 8.0374026,20.7584416 C8.28675325,20.7875325 8.54025974,20.8041558 8.79792208,20.8041558 C10.294026,20.8041558 11.6737662,20.2805195 12.7667532,19.4036364 C11.3662338,19.3745455 10.1901299,18.4311688 9.78285714,17.1303896 C9.97818182,17.1677922 10.1776623,17.1885714 10.3812987,17.1885714 C10.6763636,17.1885714 10.9922078,17.147013 11.2581818,17.0722078 C9.79532468,16.772987 8.72727273,15.4472727 8.72727273,13.8597403 L8.72727273,13.8223377 C9.14285714,14.0633766 9.62077922,14.212987 10.1444156,14.2296104 C9.28415584,13.6436364 8.70649351,12.6379221 8.70649351,11.5033766 C8.70649351,10.9049351 8.8561039,10.3397403 9.13038961,9.85766234 C10.7054545,11.84 13.0535065,13.1407792 15.7090909,13.2779221 C15.6509091,13.0368831 15.6238961,12.7875325 15.6238961,12.534026 C15.6238961,10.7262338 17.0522597,9.25922078 18.8147532,9.25922078 C19.7331948,9.25922078 20.5635325,9.65402597 21.1453506,10.2898701 C21.8726234,10.1444156 22.5541818,9.87428571 23.1734026,9.4961039 C22.9365195,10.2607792 22.4290909,10.9049351 21.7683117,11.3080519 C22.4166234,11.2290909 23.0316883,11.0545455 23.601039,10.7927273 C23.1771429,11.4493506 22.6327273,12.027013 22.0093506,12.4883117 L22.0093506,12.4883117 Z"></path>
        </g>
    </g>
</svg>