<?xml version="1.0" encoding="UTF-8"?>
<svg width="77px" height="77px" viewBox="0 0 77 77" version="1.1" xmlns="http://www.w3.org/2000/svg" xmlns:xlink="http://www.w3.org/1999/xlink">
    <!-- Generator: Sketch 42 (36781) - http://www.bohemiancoding.com/sketch -->
    <title>Twitter</title>
    <desc>Created with Sketch.</desc>
    <defs></defs>
    <g id="Page-1" stroke="none" stroke-width="1" fill="none" fill-rule="evenodd">
        <path d="M38.53,0.13 C17.56,0.13 0.56,17.13 0.56,38.1 C0.56,59.06 17.56,76.06 38.53,76.06 C59.49,76.06 76.49,59.06 76.49,38.1 C76.49,17.13 59.49,0.13 38.53,0.13 L38.53,0.13 Z M52.96,30.05 C52.97,30.39 52.98,30.73 52.98,31.07 C52.98,41.48 45.25,53.49 31.12,53.49 C26.78,53.49 22.74,52.18 19.34,49.95 C19.94,50.02 20.55,50.06 21.17,50.06 C24.77,50.06 28.09,48.8 30.72,46.69 C27.35,46.62 24.52,44.35 23.54,41.22 C24.01,41.31 24.49,41.36 24.98,41.36 C25.69,41.36 26.45,41.26 27.09,41.08 C23.57,40.36 21,37.17 21,33.35 L21,33.26 C22,33.84 23.15,34.2 24.41,34.24 C22.34,32.83 20.95,30.41 20.95,27.68 C20.95,26.24 21.31,24.88 21.97,23.72 C25.76,28.49 31.41,31.62 37.8,31.95 C37.66,31.37 37.595,30.77 37.595,30.16 C37.595,25.81 41.032,22.28 45.273,22.28 C47.483,22.28 49.481,23.23 50.881,24.76 C52.631,24.41 54.271,23.76 55.761,22.85 C55.191,24.69 53.97,26.24 52.38,27.21 C53.94,27.02 55.42,26.6 56.79,25.97 C55.77,27.55 54.46,28.94 52.96,30.05 L52.96,30.05 Z" id="Twitter" fill="#000000"></path>
    </g>
</svg>