<?xml version="1.0" encoding="UTF-8"?>
<svg width="32px" height="32px" viewBox="0 0 32 32" version="1.1" xmlns="http://www.w3.org/2000/svg" xmlns:xlink="http://www.w3.org/1999/xlink">
    <!-- Generator: Sketch 45 (43475) - http://www.bohemiancoding.com/sketch -->
    <title>Vimeo</title>
    <desc>Created with Sketch.</desc>
    <defs></defs>
    <g id="Page-1" stroke="none" stroke-width="1" fill="none" fill-rule="evenodd">
        <g id="Vimeo" fill="#000000" fill-rule="nonzero">
            <path d="M16.0124675,0.054025974 C7.29766234,0.054025974 0.232727273,7.11896104 0.232727273,15.8337662 C0.232727273,24.5444156 7.29766234,31.6093506 16.0124675,31.6093506 C24.7231169,31.6093506 31.7880519,24.5444156 31.7880519,15.8337662 C31.7880519,7.11896104 24.7231169,0.054025974 16.0124675,0.054025974 L16.0124675,0.054025974 Z M20.5298701,18.4062338 C18.4561039,21.065974 16.7023377,22.3958442 15.2685714,22.3958442 C14.3833766,22.3958442 13.6311688,21.5896104 13.0161039,19.9646753 C12.6046753,18.4768831 12.1974026,16.9890909 11.785974,15.5054545 C11.3288312,13.8805195 10.8425974,13.0701299 10.318961,13.0701299 C10.2025974,13.0701299 9.80779221,13.307013 9.12207792,13.7807792 L8.40727273,12.8664935 C9.15532468,12.214026 9.89506494,11.5615584 10.6264935,10.9090909 C11.6280519,10.052987 12.3761039,9.60415584 12.878961,9.55428571 C14.0633766,9.44207792 14.7906494,10.2441558 15.0649351,11.9522078 C15.36,13.8015584 15.5636364,14.9527273 15.68,15.4015584 C16.0207792,16.9350649 16.3948052,17.6997403 16.8062338,17.6997403 C17.1220779,17.6997403 17.6,17.2051948 18.24,16.2119481 C18.8758442,15.2228571 19.2166234,14.4664935 19.2623377,13.947013 C19.3537662,13.0909091 19.012987,12.667013 18.24,12.667013 C17.8742857,12.667013 17.5002597,12.7418182 17.1137662,12.9038961 C17.865974,10.4893506 19.2997403,9.3174026 21.4150649,9.38805195 C22.9818182,9.42961039 23.7257143,10.4353247 23.6342857,12.3927273 C23.5677922,13.8597403 22.5288312,15.8628571 20.5298701,18.4062338 L20.5298701,18.4062338 Z"></path>
        </g>
    </g>
</svg>