<?xml version="1.0" encoding="UTF-8"?>
<svg width="77px" height="77px" viewBox="0 0 77 77" version="1.1" xmlns="http://www.w3.org/2000/svg" xmlns:xlink="http://www.w3.org/1999/xlink">
    <!-- Generator: Sketch 42 (36781) - http://www.bohemiancoding.com/sketch -->
    <title>Vimeo</title>
    <desc>Created with Sketch.</desc>
    <defs></defs>
    <g id="Page-1" stroke="none" stroke-width="1" fill="none" fill-rule="evenodd">
        <path d="M38.53,0.13 C17.56,0.13 0.56,17.13 0.56,38.1 C0.56,59.06 17.56,76.06 38.53,76.06 C59.49,76.06 76.49,59.06 76.49,38.1 C76.49,17.13 59.49,0.13 38.53,0.13 L38.53,0.13 Z M49.4,44.29 C44.41,50.69 40.19,53.89 36.74,53.89 C34.61,53.89 32.8,51.95 31.32,48.04 C30.33,44.46 29.35,40.88 28.36,37.31 C27.26,33.4 26.09,31.45 24.83,31.45 C24.55,31.45 23.6,32.02 21.95,33.16 L20.23,30.96 C22.03,29.39 23.81,27.82 25.57,26.25 C27.98,24.19 29.78,23.11 30.99,22.99 C33.84,22.72 35.59,24.65 36.25,28.76 C36.96,33.21 37.45,35.98 37.73,37.06 C38.55,40.75 39.45,42.59 40.44,42.59 C41.2,42.59 42.35,41.4 43.89,39.01 C45.42,36.63 46.24,34.81 46.35,33.56 C46.57,31.5 45.75,30.48 43.89,30.48 C43.01,30.48 42.11,30.66 41.18,31.05 C42.99,25.24 46.44,22.42 51.53,22.59 C55.3,22.69 57.09,25.11 56.87,29.82 C56.71,33.35 54.21,38.17 49.4,44.29 L49.4,44.29 Z" id="Vimeo" fill="#000000"></path>
    </g>
</svg>