<?xml version="1.0" encoding="UTF-8"?>
<svg width="32px" height="32px" viewBox="0 0 32 32" version="1.1" xmlns="http://www.w3.org/2000/svg" xmlns:xlink="http://www.w3.org/1999/xlink">
    <!-- Generator: Sketch 42 (36781) - http://www.bohemiancoding.com/sketch -->
    <title>wechat</title>
    <desc>Created with Sketch.</desc>
    <defs></defs>
    <g id="Page-1" stroke="none" stroke-width="1" fill="none" fill-rule="evenodd">
        <g id="HOME" transform="translate(-562.000000, -2816.000000)">
            <g id="wechat" transform="translate(562.000000, 2816.000000)">
                <circle id="Oval" fill="#000000" cx="16" cy="16" r="16"></circle>
                <path d="M21.2224875,17.645825 C20.8281125,17.645825 20.5083625,17.326075 20.5083625,16.9317 C20.5083625,16.5372 20.8281125,16.21745 21.2224875,16.21745 C21.6168625,16.21745 21.9366125,16.5372 21.9366125,16.9317 C21.9366125,17.326075 21.6168625,17.645825 21.2224875,17.645825 M17.7314875,17.645825 C17.3371125,17.645825 17.0172375,17.326075 17.0172375,16.9317 C17.0172375,16.5372 17.3371125,16.21745 17.7314875,16.21745 C18.1259875,16.21745 18.4456125,16.5372 18.4456125,16.9317 C18.4456125,17.326075 18.1259875,17.645825 17.7314875,17.645825 Z M19.5455,13.061 C16.2165,13.07125 13.521375,15.42 13.521375,18.31625 C13.521375,18.82425 13.605875,19.314875 13.760625,19.7795 C13.631625,19.786125 13.502,19.7905 13.371125,19.7905 C12.59925,19.7905 11.8595,19.674125 11.17475,19.46125 L8.896625,20.583875 L9.51925,18.692125 C7.98875,17.70675 7,16.149125 7,14.39525 C7,11.4155 9.8525,9 13.371125,9 C16.346,9 18.84425,10.726625 19.5455,13.061 Z M24.9057375,18.316325 C24.9057375,19.852325 24.0467375,21.21345 22.7241125,22.058075 L23.1686125,23.597325 L21.4668625,22.65345 C20.8764875,22.84895 20.2366125,22.95695 19.5673625,22.95695 C16.6189875,22.95695 14.2289875,20.8792 14.2289875,18.316325 C14.2289875,15.753325 16.6189875,13.6757 19.5673625,13.6757 C22.5157375,13.6757 24.9057375,15.753325 24.9057375,18.316325 Z M11.193375,13.36275 C10.711,13.36275 10.32,12.97175 10.32,12.48925 C10.32,12.006875 10.711,11.615875 11.193375,11.615875 C11.67575,11.615875 12.066875,12.006875 12.066875,12.48925 C12.066875,12.97175 11.67575,13.36275 11.193375,13.36275 Z M15.509875,11.615875 C15.99225,11.615875 16.38325,12.006875 16.38325,12.48925 C16.38325,12.97175 15.99225,13.36275 15.509875,13.36275 C15.027375,13.36275 14.636375,12.97175 14.636375,12.48925 C14.636375,12.006875 15.027375,11.615875 15.509875,11.615875 Z" id="WECHAT" fill="#FFFFFF"></path>
            </g>
        </g>
    </g>
</svg>